<?xml version="1.0" standalone="no"?><!DOCTYPE svg PUBLIC "-//W3C//DTD SVG 1.1//EN" "http://www.w3.org/Graphics/SVG/1.1/DTD/svg11.dtd"><svg fill="#ffffff" t="1631175716023" class="icon" viewBox="0 0 1024 1024" version="1.1" xmlns="http://www.w3.org/2000/svg" p-id="15978" xmlns:xlink="http://www.w3.org/1999/xlink" width="152" height="152"><defs><style type="text/css"></style></defs><path d="M827.36822039 850.20959535A99.3683571 99.3683571 0 0 1 754.20147059 882.78857422H269.71893442a101.24696247 101.24696247 0 0 1-73.66112031-32.57897887A114.99044665 114.99044665 0 0 1 165.90124841 776.30129013V321.87644657a107.52546096 107.52546096 0 0 1 103.81768601-106.43784681h34.60589535V178.31141743a34.60589533 34.60589533 0 1 1 69.21179066-1e-8v37.07774506h276.84716344V178.31141743a37.22605614 37.22605614 0 0 1 17.30294802-32.08460836 32.62841543 32.62841543 0 0 1 34.60589533 0 37.22605614 37.22605614 0 0 1 17.30294731 32.08460835v37.07774506h34.60589606A107.72320858 107.72320858 0 0 1 858.01915661 326.62239765v444.93294141a114.19945469 114.19945469 0 0 1-30.65093622 78.65425629zM788.80736593 326.62239765a36.78112289 36.78112289 0 0 0-10.38176866-26.20160658 32.5295416 32.5295416 0 0 0-24.22412669-10.87613848H269.71893442a35.79238329 35.79238329 0 0 0-34.60589533 37.07774506v444.93294141a38.5114179 38.5114179 0 0 0 9.88739886 26.20160657 33.56771846 33.56771846 0 0 0 24.71849647 10.87613848h484.48253616a32.48010505 32.48010505 0 0 0 24.22412669-10.87613848 36.73168634 36.73168634 0 0 0 10.38176866-26.20160658v-444.9329414z m-305.52061973 342.59836478a33.17222248 33.17222248 0 0 1-48.94262385 0L336.45887538 564.31546228a38.85747663 38.85747663 0 0 1 1.97747992-50.32685943 32.92503758 32.92503758 0 0 1 46.96514392-1.92804264l60.80750193 67.48149638a15.96814899 15.96814899 0 0 0 12.35924859 5.48750578 17.55013294 17.55013294 0 0 0 12.35924788-5.48750578l159.18711942-170.5576277v-1.87860538a33.46884465 33.46884465 0 0 1 34.60589533-11.91431607 37.27549342 37.27549342 0 0 1 25.70723606 27.38809454 38.95635115 38.95635115 0 0 1-11.37050826 36.83056015z" p-id="15979"></path></svg>
