<?xml version="1.0" standalone="no"?><!DOCTYPE svg PUBLIC "-//W3C//DTD SVG 1.1//EN" "http://www.w3.org/Graphics/SVG/1.1/DTD/svg11.dtd"><svg fill="#ffffff" t="1631175710240" class="icon" viewBox="0 0 1024 1024" version="1.1" xmlns="http://www.w3.org/2000/svg" p-id="15836" xmlns:xlink="http://www.w3.org/1999/xlink" width="152" height="152"><defs><style type="text/css"></style></defs><path d="M853.53482439 655.97723378a375.39269577 375.39269577 0 0 1-197.42875172 197.52144089 369.69228855 369.69228855 0 0 1-288.26451489 0 375.39269577 375.39269577 0 0 1-197.42875098-197.52144089 369.50690947 369.50690947 0 0 1 0-287.94010096A375.39269577 375.39269577 0 0 1 367.84155778 170.51569193a369.6459436 369.6459436 0 0 1 288.26451489 1e-8 375.39269577 375.39269577 0 0 1 197.42875171 197.52144088 369.50690947 369.50690947 0 0 1 0 287.94010096z m-64.41924046-260.55033788a300.17512235 300.17512235 0 0 0-64.8826885-95.74830985 305.87553029 305.87553029 0 0 0-95.47024088-64.88268779 299.8043642 299.8043642 0 0 0-233.57767791 0 304.85594499 304.85594499 0 0 0-95.47024089 64.88268779 301.2410526 301.2410526 0 0 0-64.8826885 95.74830985 299.34091685 299.34091685 0 0 0 0 233.1605748 300.2214673 300.2214673 0 0 0 64.8826885 95.74830987 305.87553029 305.87553029 0 0 0 95.47024089 64.8826885 299.85070914 299.85070914 0 0 0 233.57767791 0 305.87553029 305.87553029 0 0 0 95.47024088-64.8826885 301.2410526 301.2410526 0 0 0 64.8826885-95.74830987 299.34091685 299.34091685 0 0 0 0-233.1605748z m-208.08805056 125.1308986a88.37949021 88.37949021 0 0 0-32.90479122 50.97925541V618.62334393a10.65929886 10.65929886 0 0 1-10.65929886 10.84467721H487.87453134a10.65929886 10.65929886 0 0 1-10.65929885-10.84467721v-40.41264646a143.01998297 143.01998297 0 0 1 54.686837-97.97285881 115.86194319 115.86194319 0 0 0 42.17374733-70.25868253v-1.15861941a53.1574594 53.1574594 0 0 0-56.54062777-56.54062851H516.60829293c-43.10064275 1.57572254-63.95579239 26.92631575-65.34613584 79.57398288a10.52026473 10.52026473 0 0 1-10.65929886 10.56660893H393.33118586a10.98371206 10.98371206 0 0 1-11.12274692-11.21543608 145.56894585 145.56894585 0 0 1 36.61237425-99.64127124 139.96122709 139.96122709 0 0 1 97.78747974-37.0758216h0.92689612a111.6445686 111.6445686 0 0 1 120.95986823 116.14001218v0.64882641a156.69169205 156.69169205 0 0 1-57.46752391 109.28098481z m-95.47024088 134.77061287H539.78068214a11.07640196 11.07640196 0 0 1 11.12274619 10.84467792V715.94737561a11.07640196 11.07640196 0 0 1-11.12274619 10.84467793H485.55729248a10.65929886 10.65929886 0 0 1-10.65929884-10.84467794v-49.58891121a10.65929886 10.65929886 0 0 1 10.65929884-11.03005702z" p-id="15837"></path></svg>
