<?xml version="1.0" standalone="no"?><!DOCTYPE svg PUBLIC "-//W3C//DTD SVG 1.1//EN" "http://www.w3.org/Graphics/SVG/1.1/DTD/svg11.dtd"><svg t="1608028092011" class="icon" viewBox="0 0 1024 1024" version="1.1" xmlns="http://www.w3.org/2000/svg" p-id="12223" xmlns:xlink="http://www.w3.org/1999/xlink" width="200" height="200"><defs><style type="text/css"></style></defs><path d="M935.039019 798.061335L553.883841 1012.963622a85.927415 85.927415 0 0 1-84.122139 0L88.420413 797.521613A81.888808 81.888808 0 0 1 46.545455 731.247512V292.230447a82.000474 82.000474 0 0 1 41.874958-66.311323L469.761702 11.016836a85.927415 85.927415 0 0 1 84.122139 0l381.155178 214.902288a81.888808 81.888808 0 0 1 42.06107 70.908263v430.065129a81.888808 81.888808 0 0 1-42.06107 71.168819z m-13.958319-500.638393a27.395528 27.395528 0 0 0-14.144431-23.543033L525.781091 58.4379a28.735527 28.735527 0 0 0-28.10275 0L116.523163 273.879909a27.24664 27.24664 0 0 0-13.958319 23.003311v429.506797a26.837196 26.837196 0 0 0 13.958319 23.822199l381.155178 214.902287a28.828583 28.828583 0 0 0 28.10275 0l381.155178-214.902287a27.395528 27.395528 0 0 0 14.144431-23.822199V297.367108z m-115.947108 62.68216l-258.321966 145.371245a13.697764 13.697764 0 0 0-7.072215 12.041377v291.003045a13.604709 13.604709 0 0 1-4.094441 9.677768 14.014153 14.014153 0 0 1-9.863879 4.001385h-28.10275a14.014153 14.014153 0 0 1-9.863879-4.001385 13.604709 13.604709 0 0 1-4.09444-9.677768V517.46189a14.218875 14.218875 0 0 0-7.072216-12.041377L218.32584 360.049269a13.679153 13.679153 0 0 1-5.024995-18.871648l13.95832-23.561644a14.386375 14.386375 0 0 1 19.169425-5.192495l258.321966 145.631801a14.14443 14.14443 0 0 0 13.95832 0l258.321966-145.631801a14.591097 14.591097 0 0 1 19.169426 5.192495l13.958319 23.561644a13.679153 13.679153 0 0 1-5.024995 18.871648z" p-id="12224"></path></svg>